<?xml version="1.0" encoding="UTF-8"?>
<svg id="Layer_1" data-name="Layer 1" xmlns="http://www.w3.org/2000/svg" viewBox="0 0 140 225">
  <path d="M9.53,68.92c4.69,9.66,13.08,15.43,19.35,15.58,22.78.55,52.9-17.93,59.26-33.74,6.26-15.53-1.2-27.49-16.45-37.12-18.08-11.42-24.69-1.6-39.98,4.92-15.32,6.53-36.03,32.54-22.18,50.36Z" fill="#e9e4de"/>
  <path d="M10.81,68.13c2.97,6.79,7.87,13.8,15.41,15.78,2.48.62,5.1.42,7.63.25,18.1-1.45,42.21-14.09,50.96-30.36,4.45-8.6,4.28-18.82-1.33-26.83-.34-.5-1.27-1.71-1.61-2.18-.37-.44-1.41-1.62-1.79-2.08-5.46-5.69-12.56-10.91-20.24-12.57-10.41-1.79-18.58,6.28-27.82,9.86C16.27,27.36-1.77,51.46,10.81,68.13h0ZM8.26,69.71C-5.55,51.39,13.36,25.42,30.79,17.24c9.46-3.81,18.54-12.16,29.55-10.06,8.1,1.77,14.67,6.46,20.52,11.88,1.84,1.79,3.71,3.91,5.19,6,20.85,31.73-26.2,60.54-54.03,61.34-2.09.07-4.27.1-6.31-.46-8.04-2.29-13.94-8.94-17.45-16.23h0Z"/>
  <path d="M72.04,184.16c20.1.39,42.21-9.85,64.07,27.81-7.14,1.27-14.26,3.43-18.31,5.33-.24-3.68-1.41-8.17-4.78-13.07-1.62-2.36-3.74-4.81-6.52-7.3-1.39-1.25-2.79-2.38-4.17-3.4-10.31-7.56-20.48-9.03-30.29-9.07v-.3Z" fill="#e9e4de"/>
  <path d="M62.76,75.25l.8.28.64.44c-14.91,21.71-41.45,51.27-25.6,83.43,10.09,20.48,21.41,24.53,33.44,24.76v.3c-14.76-.06-28.7,3.09-41.09-6.51h-.01c-3.67-2.85-7.2-6.81-10.58-12.31-.83-1.35-1.66-2.8-2.47-4.35-2.1-3.99-3.25-8.26-3.63-12.73-.46-5.43.2-11.14,1.67-16.96,1.41-5.62,3.58-11.35,6.19-17.02,1.34-2.94,2.8-5.86,4.35-8.74,3.4-6.37,7.18-12.58,10.89-18.39.83-1.3,1.66-2.58,2.48-3.84,2.38-3.66,6.59-10.04,8.71-13.27l14.21,4.91Z" fill="#e9e4de"/>
  <path d="M6.15,65.21c20.71,26.97,67.79-1.93,72.48-18.3,4.41-15.39,6.98-32.15-7.22-39.25-19.13-9.56-30.94-4.83-46.23,1.69C9.86,15.88-7.69,47.39,6.15,65.21Z"/>
  <path d="M138.71,214.88c-2.33-4.81-5.16-9.55-8.49-13.88-.1-.27-.28-.52-.52-.69-4.12-5.2-9.01-9.73-14.72-12.93-.24-.74-.98-1.3-1.89-.98-1.99-.98-4.05-1.82-6.23-2.46-9.73-3.07-20.01-1.57-29.89-.93-9.68.85-19.72-.85-26.82-7.88-5.25-4.95-9.16-11.41-11.92-18.08-4.93-13.27-3.95-25.33.12-36.67.52-.3.88-.87.78-1.53-.02-.11-.04-.22-.08-.32,4.71-12.05,12.8-23.31,20.84-34.38,2.85-4.05,5.73-8.11,8.37-12.4,2.64-4.43,5.22-9.01,5.71-14.35.21-2.2-2.9-2.26-2.99-.26-.44,6.19-3.97,11.79-7.42,16.99-.08,0-.15-.02-.24,0-2.09.2-4.03-.39-6.02-.86-1.95-.55-3.81-1.23-5.49-2.46-1.26-.96-2.83.83-1.72,1.96l.9.92c2.63,2.53,6.22,3.32,9.73,3.52.23.05.49.03.77-.02-3.24,4.65-6.62,9.18-9.95,13.77,0,0-.01,0-.02,0-3.69-.96-7.31-2.14-10.9-3.45-.81-.31-1.61-.64-2.4-.98,2.91-4.21,5.93-8.34,8.94-12.46.9-.9.69-2.4-.61-2.77-.83-.21-1.68.29-1.9,1.12-.64,2.52-2.05,4.54-3.5,6.53-1.74,2.44-3.58,4.81-5.4,7.19-.1.07-.2.14-.29.23-.14.16-.23.34-.29.53-2.5,3.26-4.95,6.55-7.08,10.07-3.15,4.99-5.46,10.5-7.73,15.96-.72.34-1.13,1.26-.84,2.01-.32.75-.63,1.51-.95,2.25-4.78,11.59-8.92,24.2-6.29,36.92,1.1,5.07,3.72,9.63,6.48,13.96,2.79,4.24,6.03,8.28,10.02,11.73.02.02.05.04.08.06,5.43,4.85,12.7,7.34,19.91,7.65,5.54.25,11.1-.28,16.63-.6,3.99.55,8.05.54,11.82.22.42-.03.84-.07,1.26-.1,1.26.14,2.53.33,3.78.6,14.78,2.96,33.49,17.1,33.28,33.4-.17,2.14,2.81,2.36,2.99.29.04-1.24-.01-2.45-.15-3.64,4.44-.35,8.47-1.92,12.67-3.34,1.04-.4,2.08-.8,3.12-1.25.66,1.06,1.3,2.14,1.93,3.22.39.67,1.25.94,1.96.6.75-.37,1.05-1.27.68-2.01ZM15.9,133.17c1.26.12,3.82.36,3.82.37,3.68.29,7.23.95,10.89,1.27-.45,3.75-.51,7.52-.09,11.29-4.72.27-13.23.75-16.1.92-.2-4.65.39-9.28,1.49-13.84ZM36.48,89.08c3.72,2.89,8.47,4.08,13.11,4.6-2.71,3.8-5.34,7.66-7.77,11.66-4.76-.96-9.6-1.43-14.43-1.11,2.71-5.23,5.81-10.25,9.1-15.14ZM25.82,107.38c4.58,1.11,9.28,1.46,13.98,1.31-1.67,2.89-3.17,5.88-4.47,8.95-4.43.07-8.98-1.03-12.46-3.73.36-.8.71-1.59,1.07-2.38.59-1.4,1.23-2.78,1.88-4.15ZM21.82,116.29c4.18,1.37,8.4,2.42,12.63,3.54-1.42,3.66-2.53,7.42-3.25,11.23-.62-.19-1.26-.35-1.89-.49-4.12-.8-8.36-1.03-12.54-.64,1.35-4.65,3.14-9.22,5.06-13.64ZM14.67,150.12c5.45.35,10.98.29,16.36-.64.6,3.19,1.56,6.36,2.92,9.49.24.55.5,1.09.75,1.64-4.65,1.08-12.28,2.85-14.67,3.4-.16-.26-.32-.51-.48-.77-1.98-3.02-3.53-6.26-4.35-9.8-.23-1.1-.4-2.21-.53-3.31ZM21.95,166.96c2.62-.25,5.19-.75,7.75-1.36,2.25-.6,4.45-1.04,6.44-2.09,1.8,3.46,3.9,6.8,6.34,9.85-4.3,1.07-11.63,2.89-12.29,3.06-3.1-2.77-5.86-5.99-8.25-9.45ZM55.7,184.43c-6.65.02-13.47-.53-19.4-3.69-1.17-.63-2.27-1.35-3.34-2.12,2.86-.95,7.78-2.59,10.91-3.63,2.84,3.22,6.11,6.04,9.93,8.19.8.46,1.62.86,2.46,1.23-.18,0-.37.01-.55.02ZM87.69,186.29c1.41-.1,2.81-.18,4.19-.21,6.36-.34,12.07.7,17.23,2.85-2.66,1.55-5.49,2.76-8.58,3.38-.06.03-.1.07-.15.11-1.12-.76-2.26-1.47-3.4-2.14-3.06-1.78-6.16-3.06-9.29-3.98ZM103.2,194.43l8.78-4.17c4.88,2.53,9.24,6.14,13.19,10.59-4.39.84-8.88,1.28-13.28,1.96-2.48-3.14-5.47-5.94-8.69-8.38ZM118.13,216.14c-.67-3.88-2.22-7.45-4.35-10.7.97-.2,1.93-.4,2.9-.58,3.49-.69,7.04-1,10.55-1.56.24.3.48.59.72.89,1.89,2.4,3.65,4.93,5.31,7.53-5.23.67-10.49,1.9-15.13,4.42Z"/>
  <g>
    <path d="M17.67,39.25c-5.38,1.97-4.74,11.76.72,12.96,4.17.92,6.22-2.57,5.94-5.22-.55-5.25-6.98-2.41-6.66-7.74Z" fill="#fff"/>
    <path d="M33.08,15.12c-5.84.71-10.83,10.2-5.36,13.79,3.61,2.37,12.48.94,12.11-5.78-.32-5.92-7.22-3.35-6.75-8.01Z" fill="#fff"/>
    <path d="M56.45,10.73c-5.91.93-8.56,10.35-3.14,14.1,3.58,2.48,10.86,1.01,10.68-6.28-.17-6.42-6.16-5.16-7.53-7.83Z" fill="#fff"/>
    <path d="M59.49,38.22c-4.27,1.19-6.71,9.68-2.54,11.9,2.87,1.53,7.22.4,7.63-4,.52-5.72-5.82-3.32-5.09-7.9Z" fill="#fff"/>
    <path d="M36.7,49c-7.71,2.01-8.62,5.06-8.11,8.51.8,5.38,5.86,5.86,8.67,5.78s5.78-2.85,5.54-6.74c-.3-4.78-5.46-4.58-6.1-7.55Z" fill="#fff"/>
  </g>
</svg>